<svg width="22" height="21" viewBox="0 0 22 21" fill="none" xmlns="http://www.w3.org/2000/svg">
<path fill-rule="evenodd" clip-rule="evenodd" d="M3.39 8.89C3.74 9.24 4.34 9.19 4.74 8.84C5.14 8.44 5.14 7.84 4.79 7.49L2.44 5.14L5.19 2.39L6.09 3.29L4.94 4.54C4.64 4.89 4.64 5.39 4.94 5.69C5.24 5.99 5.79 5.94 6.09 5.59L7.19 4.39L7.54 4.74C7.89 5.09 8.49 5.04 8.89 4.69C9.29 4.29 9.29 3.69 8.94 3.34L6.59 0.99C5.89 0.29 4.69 0.34 3.89 1.14L1.14 3.89C0.34 4.69 0.29 5.89 0.99 6.59L3.39 8.89Z" fill="#7945D1"/>
<path fill-rule="evenodd" clip-rule="evenodd" d="M20.74 15.14L18.09 12.49C17.74 12.14 17.14 12.14 16.74 12.54C16.34 12.94 16.34 13.54 16.69 13.89L17.29 14.49L16.29 15.44C15.94 15.74 15.94 16.29 16.24 16.59C16.54 16.89 17.04 16.94 17.39 16.59L18.44 15.64L19.34 16.54L16.84 19.04L14.19 16.39C13.84 16.04 13.24 16.04 12.84 16.44C12.44 16.84 12.44 17.44 12.79 17.79L15.44 20.44C16.14 21.14 17.34 21.09 18.14 20.29L20.64 17.79C21.39 17.09 21.44 15.89 20.74 15.14Z" fill="#7945D1"/>
<path fill-rule="evenodd" clip-rule="evenodd" d="M20.34 3.14L18.34 1.14C17.54 0.34 16.29 0.34 15.49 1.14L2.14 14.49C1.94 14.69 1.84 14.89 1.74 15.19L0.79 18.84C0.49 19.94 1.49 20.94 2.64 20.69L6.29 19.74C6.54 19.69 6.79 19.54 6.99 19.34L20.34 5.99C21.09 5.19 21.09 3.89 20.34 3.14ZM5.64 17.79L2.94 18.49L3.64 15.79L14.24 5.24L16.24 7.24L5.64 17.79ZM17.64 5.84L15.64 3.84L16.89 2.54L18.89 4.54L17.64 5.84Z" fill="#7945D1"/>
</svg>
