<svg width="24" height="24" viewBox="0 0 24 24" fill="none" xmlns="http://www.w3.org/2000/svg">
<path d="M3.0002 18.3898C3.0002 18.843 3.18675 19.3097 3.4935 19.6431C3.80024 19.9762 4.21296 20.19 4.78641 20.1902H19.2131C19.7865 20.1902 20.1999 19.9767 20.5064 19.6435C20.813 19.3103 20.9997 18.8436 20.9997 18.3902C20.9866 17.8966 20.8133 17.4299 20.3332 17.0301L15.0218 12.7044C14.5312 12.3048 14.531 11.5555 15.0216 11.1557C15.3888 10.8564 15.9157 10.8562 16.2831 11.1553L21.6001 15.4831C22.5466 16.243 23 17.3366 23 18.3898C23 19.3498 22.6399 20.2832 21.9733 21.0032C21.32 21.7232 20.3334 22.2033 19.2133 22.1899H4.78702C3.66693 22.2033 2.68037 21.7231 2.02696 21.0032C1.36041 20.283 1.00028 19.3498 1.00028 18.3898C0.986795 17.3497 1.45347 16.243 2.40018 15.4831L11.3867 8.16349L12.8535 6.97688C13.2934 6.60327 13.5069 6.11031 13.5069 5.59008C13.5069 5.06984 13.2934 4.5634 12.8535 4.20328C12.5203 3.9366 12.1201 3.80343 11.7202 3.80343C11.32 3.80343 10.9335 3.9366 10.6001 4.20328L9.44034 5.14999C9.01356 5.49665 8.37361 5.44326 8.02696 5.00335C7.6803 4.57692 7.74698 3.95011 8.1736 3.60346L9.33341 2.65675C10.0269 2.08314 10.8803 1.80333 11.7203 1.80333C12.5735 1.80333 13.4134 2.08313 14.1069 2.65658C15.0401 3.40323 15.5068 4.50987 15.5068 5.58989C15.5068 6.66973 15.0401 7.76323 14.1069 8.5232L3.66676 17.0296C3.18691 17.4298 3.0002 17.8965 3.0002 18.3898Z" fill="#541f78"/>
</svg>
