<svg width="20" height="21" viewBox="0 0 20 21" fill="none" xmlns="http://www.w3.org/2000/svg">
<path d="M6 12.5C6.55228 12.5 7 12.0523 7 11.5C7 10.9477 6.55228 10.5 6 10.5C5.44772 10.5 5 10.9477 5 11.5C5 12.0523 5.44772 12.5 6 12.5Z" fill="#7945D1"/>
<path d="M7 15.5C7 16.0523 6.55228 16.5 6 16.5C5.44772 16.5 5 16.0523 5 15.5C5 14.9477 5.44772 14.5 6 14.5C6.55228 14.5 7 14.9477 7 15.5Z" fill="#7945D1"/>
<path d="M10 12.5C10.5523 12.5 11 12.0523 11 11.5C11 10.9477 10.5523 10.5 10 10.5C9.44772 10.5 9 10.9477 9 11.5C9 12.0523 9.44772 12.5 10 12.5Z" fill="#7945D1"/>
<path d="M11 15.5C11 16.0523 10.5523 16.5 10 16.5C9.44772 16.5 9 16.0523 9 15.5C9 14.9477 9.44772 14.5 10 14.5C10.5523 14.5 11 14.9477 11 15.5Z" fill="#7945D1"/>
<path d="M14 12.5C14.5523 12.5 15 12.0523 15 11.5C15 10.9477 14.5523 10.5 14 10.5C13.4477 10.5 13 10.9477 13 11.5C13 12.0523 13.4477 12.5 14 12.5Z" fill="#7945D1"/>
<path fill-rule="evenodd" clip-rule="evenodd" d="M7 1.5C7 0.947715 6.55228 0.5 6 0.5C5.44772 0.5 5 0.947715 5 1.5L4 1.5C1.79086 1.5 0 3.29086 0 5.5V16.5C0 18.7091 1.79086 20.5 4 20.5H16C18.2091 20.5 20 18.7091 20 16.5V5.5C20 3.29086 18.2091 1.5 16 1.5C16 0.947715 15.5523 0.5 15 0.5C14.4477 0.5 14 0.947715 14 1.5L7 1.5ZM14 4.5V3.5H7V4.5C7 5.05228 6.55228 5.5 6 5.5C5.44771 5.5 5 5.05228 5 4.5V3.5H4C2.89543 3.5 2 4.39543 2 5.5V6.5H18V5.5C18 4.39543 17.1046 3.5 16 3.5V4.5C16 5.05228 15.5523 5.5 15 5.5C14.4477 5.5 14 5.05228 14 4.5ZM2 16.5V8.5H18V16.5C18 17.6046 17.1046 18.5 16 18.5H4C2.89543 18.5 2 17.6046 2 16.5Z" fill="#7945D1"/>
</svg>
