<svg width="25" height="24" viewBox="0 0 25 24" fill="none" xmlns="http://www.w3.org/2000/svg">
<path d="M18.0001 8.00005C18.8285 8.00005 19.5001 7.32847 19.5001 6.50005C19.5001 5.67162 18.8285 5.00005 18.0001 5.00005C17.1716 5.00005 16.5001 5.67162 16.5001 6.50005C16.5001 7.32847 17.1716 8.00005 18.0001 8.00005Z" fill="#7945D1"/>
<path fill-rule="evenodd" clip-rule="evenodd" d="M13.8827 20.4582C12.322 22.0189 9.79205 22.0205 8.22938 20.4617L3.95663 16.1997C2.39118 14.6382 2.38958 12.1028 3.95307 10.5393L11.9482 2.54416C12.3232 2.16909 12.832 1.95837 13.3624 1.95837H19.4867C21.1324 1.95837 22.4709 3.28411 22.4866 4.9297L22.5441 10.9491C22.5493 11.4861 22.3382 12.0026 21.9584 12.3824L13.8827 20.4582ZM9.64182 19.0457L5.36906 14.7837C4.58633 14.0029 4.58554 12.7352 5.36728 11.9535L13.3624 3.95838L19.4867 3.95838C20.0353 3.95838 20.4815 4.40029 20.4867 4.94882L20.5442 10.9682L12.4685 19.0439C11.6881 19.8243 10.4232 19.8251 9.64182 19.0457Z" fill="#7945D1"/>
</svg>
