<svg width="24" height="24" viewBox="0 0 24 24" fill="none" xmlns="http://www.w3.org/2000/svg">
<path fill-rule="evenodd" clip-rule="evenodd" d="M16 6C16 7.46093 15.2168 8.73893 14.0474 9.43704C15.4946 10.0874 16.5764 11.406 16.9 13H18V11.4142L17.2929 10.7071C16.9024 10.3166 16.9024 9.68342 17.2929 9.29289C17.6834 8.90237 18.3166 8.90237 18.7071 9.29289L19.7071 10.2929C19.803 10.3888 19.8753 10.4993 19.9241 10.6172C19.9719 10.7324 19.9988 10.8585 20 10.9908L20 11V13C21.1046 13 22 13.8954 22 15V16C22 18.2091 20.2091 20 18 20H17V21C17 21.5523 16.5523 22 16 22C15.4477 22 15 21.5523 15 21V20H9V21C9 21.5523 8.55228 22 8 22C7.44772 22 7 21.5523 7 21V20H6C3.79086 20 2 18.2091 2 16V15C2 13.8954 2.89543 13 4 13H7.10002C7.42358 11.406 8.50542 10.0874 9.95263 9.43703C8.7832 8.73893 8 7.46093 8 6C8 3.79086 9.79086 2 12 2C14.2091 2 16 3.79086 16 6ZM12 8C13.1046 8 14 7.10457 14 6C14 4.89543 13.1046 4 12 4C10.8954 4 10 4.89543 10 6C10 7.10457 10.8954 8 12 8ZM4 15V16C4 17.1046 4.89543 18 6 18H18C19.1046 18 20 17.1046 20 16V15H4ZM14.8293 13H9.17071C9.58254 11.8348 10.6938 11 12 11C13.3062 11 14.4175 11.8348 14.8293 13Z" fill="#7945D1"/>
</svg>
