<?xml version="1.0" standalone="no"?>
<!DOCTYPE svg PUBLIC "-//W3C//DTD SVG 20010904//EN"
 "http://www.w3.org/TR/2001/REC-SVG-20010904/DTD/svg10.dtd">
<svg version="1.0" xmlns="http://www.w3.org/2000/svg"
 width="700.000000pt" height="700.000000pt" viewBox="0 0 700.000000 700.000000"
 preserveAspectRatio="xMidYMid meet">
<metadata>
Created by potrace 1.14, written by Peter Selinger 2001-2017
</metadata>
<g transform="translate(0.000000,700.000000) scale(0.100000,-0.100000)"
fill="#000000" stroke="none">
<path d="M3377 6474 c-1 -1 -33 -4 -72 -8 -68 -6 -147 -22 -230 -46 -52 -15
-229 -100 -233 -111 -2 -5 -8 -9 -13 -9 -12 0 -39 -21 -281 -217 -103 -84
-198 -167 -211 -185 -120 -159 -48 -386 142 -451 84 -30 222 -1 286 59 11 11
40 35 65 54 25 19 47 37 50 40 3 3 52 44 110 91 187 153 255 186 400 196 289
19 535 -203 546 -492 7 -183 -57 -318 -211 -448 -39 -32 -181 -149 -318 -259
-136 -110 -253 -205 -260 -211 -6 -7 -46 -39 -87 -72 -41 -33 -114 -91 -161
-130 -47 -38 -105 -86 -129 -105 -60 -49 -281 -228 -305 -248 -11 -10 -67 -55
-125 -102 -57 -47 -114 -93 -125 -102 -11 -9 -124 -101 -251 -205 -252 -205
-242 -197 -459 -373 -82 -67 -168 -137 -190 -155 -72 -59 -389 -318 -516 -420
-162 -132 -244 -213 -311 -310 -139 -200 -200 -404 -193 -645 4 -122 8 -150
31 -245 37 -147 111 -299 204 -420 8 -11 53 -58 100 -105 155 -156 335 -251
560 -295 64 -12 391 -14 2310 -14 1419 0 2253 3 2285 10 28 5 61 11 75 14 14
2 54 14 90 25 451 146 765 589 755 1068 -3 140 -8 177 -40 285 -45 155 -122
298 -229 421 -28 32 -123 118 -211 190 -88 72 -169 139 -180 148 -17 15 -195
159 -309 251 -22 18 -91 75 -155 127 -212 173 -705 573 -790 642 -101 81 -157
103 -247 95 -205 -16 -329 -229 -240 -412 33 -66 53 -83 696 -604 69 -56 445
-363 465 -379 11 -9 43 -35 70 -58 28 -22 134 -109 237 -193 251 -204 294
-255 332 -391 72 -255 -75 -542 -324 -632 l-65 -23 -2185 -2 c-1440 -1 -2204
1 -2240 8 -320 59 -506 433 -364 733 49 105 36 93 894 790 386 313 394 320
400 326 3 3 88 73 190 155 102 83 194 157 205 167 35 29 306 251 421 343 61
50 229 187 374 305 144 118 280 229 301 245 21 17 71 57 111 90 40 33 134 110
208 170 74 61 160 137 190 169 195 206 304 481 301 764 0 74 -10 181 -17 193
-2 4 -6 23 -10 43 -7 48 -45 157 -80 231 -155 333 -503 583 -864 621 -55 5
-169 11 -173 8z"/>
</g>
</svg>
